<?xml version="1.0" standalone="no"?>
<!DOCTYPE svg PUBLIC "-//W3C//DTD SVG 20010904//EN"
 "http://www.w3.org/TR/2001/REC-SVG-20010904/DTD/svg10.dtd">
<svg version="1.0" xmlns="http://www.w3.org/2000/svg"
 width="608.000000pt" height="834.000000pt" viewBox="0 0 608.000000 834.000000"
 preserveAspectRatio="xMidYMid meet">

<g transform="translate(0.000000,834.000000) scale(0.100000,-0.100000)"
fill="#000000" stroke="none">
<path d="M2805 8314 c-16 -2 -73 -9 -125 -15 -802 -91 -1562 -529 -2056 -1185
-640 -851 -788 -1962 -393 -2956 230 -578 1064 -1834 2391 -3598 213 -283 396
-526 406 -538 l18 -24 186 244 c1218 1601 2158 2970 2508 3653 379 740 443
1583 179 2366 -147 439 -394 835 -729 1169 -471 472 -1039 757 -1715 862 -98
15 -192 21 -385 23 -140 2 -268 1 -285 -1z m443 -1540 c424 -63 798 -331 995
-713 111 -215 150 -372 150 -616 2 -371 -119 -674 -375 -940 -192 -200 -428
-332 -698 -391 -107 -24 -417 -26 -525 -5 -523 103 -943 505 -1063 1016 -109
462 27 936 362 1270 304 303 729 442 1154 379z"/>
</g>
</svg>
